<?xml version="1.0" encoding="UTF-8"?>
<!DOCTYPE svg PUBLIC "-//W3C//DTD SVG 1.1//EN" "http://www.w3.org/Graphics/SVG/1.1/DTD/svg11.dtd">
<svg xmlns="http://www.w3.org/2000/svg" version="1.1" width="512px" height="512px" style="shape-rendering:geometricPrecision; text-rendering:geometricPrecision; image-rendering:optimizeQuality; fill-rule:evenodd; clip-rule:evenodd" xmlns:xlink="http://www.w3.org/1999/xlink">
<g><path style="opacity:0.61" fill="#4cac0f" d="M 232.5,-0.5 C 247.833,-0.5 263.167,-0.5 278.5,-0.5C 358.893,9.09801 422.393,46.7647 469,112.5C 493.077,148.895 506.91,188.895 510.5,232.5C 510.667,246.171 510.5,259.837 510,273.5C 509.162,278.643 508.328,283.643 507.5,288.5C 517.427,197.292 488.427,121.458 420.5,61C 402.157,45.8221 382.157,33.1555 360.5,23C 358.187,22.338 355.854,21.838 353.5,21.5C 279.7,-6.73724 207.367,-3.4039 136.5,31.5C 130.854,33.1542 125.521,35.6542 120.5,39C 51.6911,84.7959 12.0244,148.629 1.5,230.5C 1.5,228.167 1.5,225.833 1.5,223.5C 12.0571,146.522 49.0571,86.0218 112.5,42C 149.131,18.1794 189.131,4.01272 232.5,-0.5 Z"/></g>
<g><path style="opacity:1" fill="#5cbf14" d="M 353.5,21.5 C 418.499,50.6672 464.333,98.3338 491,164.5C 493.682,171.709 495.849,179.043 497.5,186.5C 473.403,111.897 425.736,58.0634 354.5,25C 351.923,23.7496 349.257,23.4163 346.5,24C 362.885,30.6922 378.552,38.6922 393.5,48C 405.83,57.5131 417.83,67.5131 429.5,78C 428.833,78.3333 428.167,78.6667 427.5,79C 431.5,81.6667 434.833,85 437.5,89C 436.833,89.3333 436.167,89.6667 435.5,90C 439.365,94.6941 443.365,99.1941 447.5,103.5C 451.702,109.393 456.036,115.226 460.5,121C 459.402,121.77 459.402,122.603 460.5,123.5C 459.022,123.238 457.689,123.571 456.5,124.5C 462.923,133.674 468.59,143.34 473.5,153.5C 470.833,154.167 468.167,154.833 465.5,155.5C 470.051,164.601 474.051,173.935 477.5,183.5C 473.893,184.489 470.226,184.823 466.5,184.5C 464.758,181.796 464.425,178.962 465.5,176C 464.264,172.793 462.931,169.626 461.5,166.5C 463.652,164.684 463.652,162.684 461.5,160.5C 459.699,154.7 457.033,148.867 453.5,143C 454.833,142.667 456.167,142.333 457.5,142C 443.482,118.971 426.149,98.6375 405.5,81C 407.167,80.6667 408.833,80.3333 410.5,80C 370.268,46.6889 323.935,28.0222 271.5,24C 278.833,23.6667 286.167,23.3333 293.5,23C 280.874,21.3024 268.207,20.1357 255.5,19.5C 242.793,20.1357 230.126,21.3024 217.5,23C 224.833,23.3333 232.167,23.6667 239.5,24C 187.065,28.0222 140.732,46.6889 100.5,80C 102.167,80.3333 103.833,80.6667 105.5,81C 84.8515,98.6375 67.5182,118.971 53.5,142C 54.8333,142.333 56.1667,142.667 57.5,143C 53.3368,150.139 50.0035,157.305 47.5,164.5C 48.1667,165.167 48.8333,165.833 49.5,166.5C 47.0609,170.473 46.0609,174.64 46.5,179C 45.9231,180.9 45.2565,182.733 44.5,184.5C 40.774,184.823 37.1073,184.489 33.5,183.5C 36.9491,173.935 40.9491,164.601 45.5,155.5C 42.8333,154.833 40.1667,154.167 37.5,153.5C 42.41,143.34 48.0767,133.674 54.5,124.5C 53.3112,123.571 51.9778,123.238 50.5,123.5C 51.5981,122.603 51.5981,121.77 50.5,121C 54.9643,115.226 59.2977,109.393 63.5,103.5C 67.6346,99.1941 71.6346,94.6941 75.5,90C 74.8333,89.6667 74.1667,89.3333 73.5,89C 76.1667,85 79.5,81.6667 83.5,79C 82.8333,78.6667 82.1667,78.3333 81.5,78C 96.9999,64.1556 113.333,51.4889 130.5,40C 141.592,34.1204 152.925,28.787 164.5,24C 161.743,23.4163 159.077,23.7496 156.5,25C 85.2913,58.039 37.6246,111.872 13.5,186.5C 33.3713,117.973 74.3713,66.3063 136.5,31.5C 207.367,-3.4039 279.7,-6.73724 353.5,21.5 Z"/></g>
<g><path style="opacity:1" fill="#60c315" d="M 461.5,160.5 C 460.503,160.47 459.836,160.97 459.5,162C 460.833,163.667 460.833,165.333 459.5,167C 460.971,170.109 462.305,173.276 463.5,176.5C 462.833,177.167 462.167,177.833 461.5,178.5C 463.697,183.756 465.697,189.089 467.5,194.5C 465.234,195.314 462.9,195.814 460.5,196C 462.26,201.114 463.927,206.28 465.5,211.5C 369.502,212.5 273.502,212.833 177.5,212.5C 200.479,174.017 234.145,158.85 278.5,167C 302.143,173.979 320.643,187.813 334,208.5C 352.824,199.089 371.49,189.422 390,179.5C 389.968,177.402 389.301,175.402 388,173.5C 363.373,135.083 328.54,111.416 283.5,102.5C 321.664,101.667 359.998,101.167 398.5,101C 389.685,92.5149 380.018,85.1816 369.5,79C 373.833,78.6667 378.167,78.3333 382.5,78C 368.898,69.0314 354.565,61.3648 339.5,55C 342.5,54.6667 345.5,54.3333 348.5,54C 286.5,28 224.5,28 162.5,54C 165.5,54.3333 168.5,54.6667 171.5,55C 156.435,61.3648 142.102,69.0314 128.5,78C 132.833,78.3333 137.167,78.6667 141.5,79C 130.982,85.1816 121.315,92.5149 112.5,101C 151.669,101.167 190.669,101.667 229.5,102.5C 167.455,116.375 126.955,153.708 108,214.5C 106.178,222.453 104.678,230.453 103.5,238.5C 82.8333,238.5 62.1667,238.5 41.5,238.5C 41.9538,230.484 43.2872,222.65 45.5,215C 42.854,214.503 40.1873,214.336 37.5,214.5C 38.1124,210.55 39.1124,206.717 40.5,203C 39.9415,202.275 39.6082,201.442 39.5,200.5C 41.1733,195.132 42.84,189.798 44.5,184.5C 45.2565,182.733 45.9231,180.9 46.5,179C 46.0609,174.64 47.0609,170.473 49.5,166.5C 48.8333,165.833 48.1667,165.167 47.5,164.5C 50.0035,157.305 53.3368,150.139 57.5,143C 56.1667,142.667 54.8333,142.333 53.5,142C 67.5182,118.971 84.8515,98.6375 105.5,81C 103.833,80.6667 102.167,80.3333 100.5,80C 140.732,46.6889 187.065,28.0222 239.5,24C 232.167,23.6667 224.833,23.3333 217.5,23C 230.126,21.3024 242.793,20.1357 255.5,19.5C 268.207,20.1357 280.874,21.3024 293.5,23C 286.167,23.3333 278.833,23.6667 271.5,24C 323.935,28.0222 370.268,46.6889 410.5,80C 408.833,80.3333 407.167,80.6667 405.5,81C 426.149,98.6375 443.482,118.971 457.5,142C 456.167,142.333 454.833,142.667 453.5,143C 457.033,148.867 459.699,154.7 461.5,160.5 Z"/></g>
<g><path style="opacity:1" fill="#53ba0f" d="M 63.5,103.5 C 63.6309,102.624 63.2975,101.957 62.5,101.5C 55.5731,108.597 49.5731,116.431 44.5,125C 45.3081,125.308 45.9747,125.808 46.5,126.5C 38.7991,138.566 32.1324,151.233 26.5,164.5C 27.311,165.216 27.9777,166.05 28.5,167C 23.8953,178.481 19.8953,190.148 16.5,202C 17.448,202.483 18.448,202.649 19.5,202.5C 17.1754,214.115 15.1754,225.781 13.5,237.5C 14.7287,238.281 16.062,238.781 17.5,239C 16.5149,248.417 16.1816,257.917 16.5,267.5C 17.5,267.5 18.5,267.5 19.5,267.5C 20.0653,274.517 20.732,281.517 21.5,288.5C 23.1238,288.36 24.2904,289.027 25,290.5C 25.9527,297.549 27.1193,304.549 28.5,311.5C 30.451,311.227 31.951,311.893 33,313.5C 34.3554,319.589 36.0221,325.589 38,331.5C 40.1474,332.113 42.314,332.779 44.5,333.5C 47.1784,341.369 50.3451,349.035 54,356.5C 57.459,357.133 60.959,357.8 64.5,358.5C 68.4133,366.667 73.08,374.333 78.5,381.5C 108.159,382.5 137.826,382.833 167.5,382.5C 222.077,417.415 278.077,419.582 335.5,389C 339.195,386.49 342.862,383.99 346.5,381.5C 375.003,382.83 403.669,382.83 432.5,381.5C 437.92,374.333 442.587,366.667 446.5,358.5C 450.041,357.8 453.541,357.133 457,356.5C 460.655,349.035 463.822,341.369 466.5,333.5C 468.686,332.779 470.853,332.113 473,331.5C 474.978,325.589 476.645,319.589 478,313.5C 479.049,311.893 480.549,311.227 482.5,311.5C 483.881,304.549 485.047,297.549 486,290.5C 486.71,289.027 487.876,288.36 489.5,288.5C 490.268,281.517 490.935,274.517 491.5,267.5C 492.5,267.5 493.5,267.5 494.5,267.5C 494.818,257.917 494.485,248.417 493.5,239C 494.938,238.781 496.271,238.281 497.5,237.5C 495.825,225.781 493.825,214.115 491.5,202.5C 492.552,202.649 493.552,202.483 494.5,202C 491.105,190.148 487.105,178.481 482.5,167C 483.022,166.05 483.689,165.216 484.5,164.5C 478.868,151.233 472.201,138.566 464.5,126.5C 465.025,125.808 465.692,125.308 466.5,125C 461.427,116.431 455.427,108.597 448.5,101.5C 447.702,101.957 447.369,102.624 447.5,103.5C 443.365,99.1941 439.365,94.6941 435.5,90C 436.167,89.6667 436.833,89.3333 437.5,89C 434.833,85 431.5,81.6667 427.5,79C 428.167,78.6667 428.833,78.3333 429.5,78C 417.83,67.5131 405.83,57.5131 393.5,48C 378.552,38.6922 362.885,30.6922 346.5,24C 349.257,23.4163 351.923,23.7496 354.5,25C 425.736,58.0634 473.403,111.897 497.5,186.5C 500.118,194.229 502.118,202.229 503.5,210.5C 503.179,212.048 502.179,212.715 500.5,212.5C 501.002,217.347 501.669,222.18 502.5,227C 501.208,232.164 501.208,237.331 502.5,242.5C 500.36,247.694 500.026,253.027 501.5,258.5C 499.127,265.975 498.127,273.641 498.5,281.5C 497.5,281.5 496.5,281.5 495.5,281.5C 495.165,286.177 494.665,290.844 494,295.5C 491.089,302.55 489.256,309.883 488.5,317.5C 487.167,317.5 485.833,317.5 484.5,317.5C 483.519,323.613 482.019,329.613 480,335.5C 478.989,336.337 477.822,336.67 476.5,336.5C 474.836,342.655 472.67,348.655 470,354.5C 468.491,355.09 466.991,355.756 465.5,356.5C 462.5,362.5 459.5,368.5 456.5,374.5C 454.833,375.167 453.167,375.833 451.5,376.5C 447.363,383.136 443.029,389.636 438.5,396C 435.774,396.182 433.107,396.682 430.5,397.5C 424.686,404.482 418.686,411.315 412.5,418C 408.167,418.333 403.833,418.667 399.5,419C 390.024,428.147 379.69,436.147 368.5,443C 293.167,443.667 217.833,443.667 142.5,443C 131.31,436.147 120.976,428.147 111.5,419C 107.167,418.667 102.833,418.333 98.5,418C 92.3138,411.315 86.3138,404.482 80.5,397.5C 77.8929,396.682 75.2263,396.182 72.5,396C 67.9705,389.636 63.6372,383.136 59.5,376.5C 57.8333,375.833 56.1667,375.167 54.5,374.5C 51.5,368.5 48.5,362.5 45.5,356.5C 44.0095,355.756 42.5095,355.09 41,354.5C 38.3302,348.655 36.1635,342.655 34.5,336.5C 33.1779,336.67 32.0113,336.337 31,335.5C 28.9809,329.613 27.4809,323.613 26.5,317.5C 25.1667,317.5 23.8333,317.5 22.5,317.5C 21.7439,309.883 19.9106,302.55 17,295.5C 16.3345,290.844 15.8345,286.177 15.5,281.5C 14.5,281.5 13.5,281.5 12.5,281.5C 12.8735,273.641 11.8735,265.975 9.5,258.5C 10.9735,253.027 10.6402,247.694 8.5,242.5C 9.79235,237.331 9.79235,232.164 8.5,227C 9.33135,222.18 9.99801,217.347 10.5,212.5C 8.82124,212.715 7.82124,212.048 7.5,210.5C 9.14325,203.59 10.3099,196.59 11,189.5C 11.2355,187.881 12.0689,186.881 13.5,186.5C 37.6246,111.872 85.2913,58.039 156.5,25C 159.077,23.7496 161.743,23.4163 164.5,24C 152.925,28.787 141.592,34.1204 130.5,40C 113.333,51.4889 96.9999,64.1556 81.5,78C 82.1667,78.3333 82.8333,78.6667 83.5,79C 79.5,81.6667 76.1667,85 73.5,89C 74.1667,89.3333 74.8333,89.6667 75.5,90C 71.6346,94.6941 67.6346,99.1941 63.5,103.5 Z"/></g>
<g><path style="opacity:1" fill="#4cb30d" d="M 353.5,21.5 C 355.854,21.838 358.187,22.338 360.5,23C 382.157,33.1555 402.157,45.8221 420.5,61C 488.427,121.458 517.427,197.292 507.5,288.5C 496.405,340.023 473.572,385.69 439,425.5C 432.136,432.698 424.97,439.532 417.5,446C 413.954,447.174 410.287,447.84 406.5,448C 348.782,492.68 283.782,509.013 211.5,497C 171.605,489.547 135.938,473.213 104.5,448C 100.713,447.84 97.0458,447.174 93.5,446C 63.7574,420.261 40.9241,389.428 25,353.5C 19.708,339.722 14.208,326.055 8.5,312.5C 7.07087,304.878 5.9042,297.211 5,289.5C 4.61742,288.944 4.11742,288.611 3.5,288.5C 0.371036,269.398 -0.295631,250.064 1.5,230.5C 12.0244,148.629 51.6911,84.7959 120.5,39C 125.521,35.6542 130.854,33.1542 136.5,31.5C 74.3713,66.3063 33.3713,117.973 13.5,186.5C 12.0689,186.881 11.2355,187.881 11,189.5C 10.3099,196.59 9.14325,203.59 7.5,210.5C 5.57846,218.771 4.24513,227.271 3.5,236C 2.79308,261.075 5.29308,285.908 11,310.5C 12,311.167 13,311.833 14,312.5C 15.5108,318.877 17.1774,325.21 19,331.5C 20,332.167 21,332.833 22,333.5C 24.3416,341.359 27.175,349.026 30.5,356.5C 31.8333,357.167 33.1667,357.833 34.5,358.5C 38.3333,366.167 42.1667,373.833 46,381.5C 47.5095,382.09 49.0095,382.756 50.5,383.5C 55.5819,392.08 61.2485,400.247 67.5,408C 69.1667,408.333 70.8333,408.667 72.5,409C 80.098,418.601 88.4314,427.601 97.5,436C 100.139,437.946 103.139,438.946 106.5,439C 121.984,451.918 138.984,462.585 157.5,471C 161.5,471.333 165.5,471.667 169.5,472C 226.833,494 284.167,494 341.5,472C 345.5,471.667 349.5,471.333 353.5,471C 372.016,462.585 389.016,451.918 404.5,439C 407.861,438.946 410.861,437.946 413.5,436C 422.569,427.601 430.902,418.601 438.5,409C 441.613,409.053 444.113,407.886 446,405.5C 451.082,398.338 455.915,391.005 460.5,383.5C 461.991,382.756 463.491,382.09 465,381.5C 468.833,373.833 472.667,366.167 476.5,358.5C 477.833,357.833 479.167,357.167 480.5,356.5C 483.825,349.026 486.658,341.359 489,333.5C 490,332.833 491,332.167 492,331.5C 493.823,325.21 495.489,318.877 497,312.5C 498,311.833 499,311.167 500,310.5C 505.707,285.908 508.207,261.075 507.5,236C 506.755,227.271 505.422,218.771 503.5,210.5C 502.118,202.229 500.118,194.229 497.5,186.5C 495.849,179.043 493.682,171.709 491,164.5C 464.333,98.3338 418.499,50.6672 353.5,21.5 Z"/></g>
<g><path style="opacity:1" fill="#5cc212" d="M 461.5,160.5 C 463.652,162.684 463.652,164.684 461.5,166.5C 462.931,169.626 464.264,172.793 465.5,176C 464.425,178.962 464.758,181.796 466.5,184.5C 468.16,189.798 469.827,195.132 471.5,200.5C 471.392,201.442 471.059,202.275 470.5,203C 471.888,206.717 472.888,210.55 473.5,214.5C 470.813,214.336 468.146,214.503 465.5,215C 467.713,222.65 469.046,230.484 469.5,238.5C 369.167,238.5 268.833,238.5 168.5,238.5C 169.91,229.269 172.91,220.602 177.5,212.5C 273.502,212.833 369.502,212.5 465.5,211.5C 463.927,206.28 462.26,201.114 460.5,196C 462.9,195.814 465.234,195.314 467.5,194.5C 465.697,189.089 463.697,183.756 461.5,178.5C 462.167,177.833 462.833,177.167 463.5,176.5C 462.305,173.276 460.971,170.109 459.5,167C 460.833,165.333 460.833,163.667 459.5,162C 459.836,160.97 460.503,160.47 461.5,160.5 Z"/></g>
<g><path style="opacity:1" fill="#4fb70e" d="M 7.5,210.5 C 7.82124,212.048 8.82124,212.715 10.5,212.5C 9.99801,217.347 9.33135,222.18 8.5,227C 9.79235,232.164 9.79235,237.331 8.5,242.5C 10.6402,247.694 10.9735,253.027 9.5,258.5C 11.8735,265.975 12.8735,273.641 12.5,281.5C 13.5,281.5 14.5,281.5 15.5,281.5C 15.8345,286.177 16.3345,290.844 17,295.5C 19.9106,302.55 21.7439,309.883 22.5,317.5C 23.8333,317.5 25.1667,317.5 26.5,317.5C 27.4809,323.613 28.9809,329.613 31,335.5C 32.0113,336.337 33.1779,336.67 34.5,336.5C 36.1635,342.655 38.3302,348.655 41,354.5C 42.5095,355.09 44.0095,355.756 45.5,356.5C 48.5,362.5 51.5,368.5 54.5,374.5C 56.1667,375.167 57.8333,375.833 59.5,376.5C 63.6372,383.136 67.9705,389.636 72.5,396C 75.2263,396.182 77.8929,396.682 80.5,397.5C 86.3138,404.482 92.3138,411.315 98.5,418C 102.833,418.333 107.167,418.667 111.5,419C 120.976,428.147 131.31,436.147 142.5,443C 217.833,443.667 293.167,443.667 368.5,443C 379.69,436.147 390.024,428.147 399.5,419C 403.833,418.667 408.167,418.333 412.5,418C 418.686,411.315 424.686,404.482 430.5,397.5C 433.107,396.682 435.774,396.182 438.5,396C 443.029,389.636 447.363,383.136 451.5,376.5C 453.167,375.833 454.833,375.167 456.5,374.5C 459.5,368.5 462.5,362.5 465.5,356.5C 466.991,355.756 468.491,355.09 470,354.5C 472.67,348.655 474.836,342.655 476.5,336.5C 477.822,336.67 478.989,336.337 480,335.5C 482.019,329.613 483.519,323.613 484.5,317.5C 485.833,317.5 487.167,317.5 488.5,317.5C 489.256,309.883 491.089,302.55 494,295.5C 494.665,290.844 495.165,286.177 495.5,281.5C 496.5,281.5 497.5,281.5 498.5,281.5C 498.127,273.641 499.127,265.975 501.5,258.5C 500.026,253.027 500.36,247.694 502.5,242.5C 501.208,237.331 501.208,232.164 502.5,227C 501.669,222.18 501.002,217.347 500.5,212.5C 502.179,212.715 503.179,212.048 503.5,210.5C 505.422,218.771 506.755,227.271 507.5,236C 508.207,261.075 505.707,285.908 500,310.5C 499,311.167 498,311.833 497,312.5C 495.489,318.877 493.823,325.21 492,331.5C 491,332.167 490,332.833 489,333.5C 486.658,341.359 483.825,349.026 480.5,356.5C 479.167,357.167 477.833,357.833 476.5,358.5C 472.667,366.167 468.833,373.833 465,381.5C 463.491,382.09 461.991,382.756 460.5,383.5C 455.915,391.005 451.082,398.338 446,405.5C 444.113,407.886 441.613,409.053 438.5,409C 430.902,418.601 422.569,427.601 413.5,436C 410.861,437.946 407.861,438.946 404.5,439C 389.016,451.918 372.016,462.585 353.5,471C 349.5,471.333 345.5,471.667 341.5,472C 284.167,494 226.833,494 169.5,472C 165.5,471.667 161.5,471.333 157.5,471C 138.984,462.585 121.984,451.918 106.5,439C 103.139,438.946 100.139,437.946 97.5,436C 88.4314,427.601 80.098,418.601 72.5,409C 70.8333,408.667 69.1667,408.333 67.5,408C 61.2485,400.247 55.5819,392.08 50.5,383.5C 49.0095,382.756 47.5095,382.09 46,381.5C 42.1667,373.833 38.3333,366.167 34.5,358.5C 33.1667,357.833 31.8333,357.167 30.5,356.5C 27.175,349.026 24.3416,341.359 22,333.5C 21,332.833 20,332.167 19,331.5C 17.1774,325.21 15.5108,318.877 14,312.5C 13,311.833 12,311.167 11,310.5C 5.29308,285.908 2.79308,261.075 3.5,236C 4.24513,227.271 5.57846,218.771 7.5,210.5 Z"/></g>
<g><path style="opacity:1" fill="#5ac013" d="M 460.5,123.5 C 464.601,129.517 468.601,135.683 472.5,142C 471.833,142.333 471.167,142.667 470.5,143C 473.5,148.667 476.5,154.333 479.5,160C 478.692,160.308 478.025,160.808 477.5,161.5C 479.638,166.276 481.638,171.11 483.5,176C 483.167,177 482.833,178 482.5,179C 484.269,184.141 485.936,189.308 487.5,194.5C 486.833,195.167 486.167,195.833 485.5,196.5C 486.99,201.461 488.324,206.461 489.5,211.5C 488.675,212.386 487.675,212.719 486.5,212.5C 487.686,218.469 488.686,224.469 489.5,230.5C 488.325,230.281 487.325,230.614 486.5,231.5C 487.286,236.477 487.953,241.477 488.5,246.5C 487.5,246.5 486.5,246.5 485.5,246.5C 485.5,252.5 485.5,258.5 485.5,264.5C 484.167,264.5 482.833,264.5 481.5,264.5C 481.24,270.172 480.907,275.839 480.5,281.5C 478.856,281.286 477.356,281.62 476,282.5C 475.491,287.901 474.657,293.234 473.5,298.5C 471.031,299.036 468.864,300.036 467,301.5C 465.767,306.834 464.6,312.167 463.5,317.5C 441.474,318.156 419.808,317.489 398.5,315.5C 403.51,295.785 406.843,275.785 408.5,255.5C 357.833,255.5 307.167,255.5 256.5,255.5C 256.5,270.5 256.5,285.5 256.5,300.5C 282.509,300.167 308.509,300.5 334.5,301.5C 308.933,338.934 273.933,352.434 229.5,342C 192.671,328.162 171.838,301.662 167,262.5C 166.121,254.27 166.621,246.27 168.5,238.5C 268.833,238.5 369.167,238.5 469.5,238.5C 469.046,230.484 467.713,222.65 465.5,215C 468.146,214.503 470.813,214.336 473.5,214.5C 472.888,210.55 471.888,206.717 470.5,203C 471.059,202.275 471.392,201.442 471.5,200.5C 469.827,195.132 468.16,189.798 466.5,184.5C 470.226,184.823 473.893,184.489 477.5,183.5C 474.051,173.935 470.051,164.601 465.5,155.5C 468.167,154.833 470.833,154.167 473.5,153.5C 468.59,143.34 462.923,133.674 456.5,124.5C 457.689,123.571 459.022,123.238 460.5,123.5 Z"/></g>
<g><path style="opacity:1" fill="#5abf12" d="M 50.5,123.5 C 51.9778,123.238 53.3112,123.571 54.5,124.5C 48.0767,133.674 42.41,143.34 37.5,153.5C 40.1667,154.167 42.8333,154.833 45.5,155.5C 40.9491,164.601 36.9491,173.935 33.5,183.5C 37.1073,184.489 40.774,184.823 44.5,184.5C 42.84,189.798 41.1733,195.132 39.5,200.5C 39.6082,201.442 39.9415,202.275 40.5,203C 39.1124,206.717 38.1124,210.55 37.5,214.5C 40.1873,214.336 42.854,214.503 45.5,215C 43.2872,222.65 41.9538,230.484 41.5,238.5C 62.1667,238.5 82.8333,238.5 103.5,238.5C 101.113,265.842 105.113,292.175 115.5,317.5C 92.8333,317.5 70.1667,317.5 47.5,317.5C 46.3998,312.167 45.2331,306.834 44,301.5C 42.136,300.036 39.9694,299.036 37.5,298.5C 36.3427,293.234 35.5094,287.901 35,282.5C 33.6439,281.62 32.1439,281.286 30.5,281.5C 30.0932,275.839 29.7599,270.172 29.5,264.5C 28.1667,264.5 26.8333,264.5 25.5,264.5C 25.5,258.5 25.5,252.5 25.5,246.5C 24.5,246.5 23.5,246.5 22.5,246.5C 23.0473,241.477 23.7139,236.477 24.5,231.5C 23.675,230.614 22.675,230.281 21.5,230.5C 22.314,224.469 23.314,218.469 24.5,212.5C 23.325,212.719 22.325,212.386 21.5,211.5C 22.6764,206.461 24.0097,201.461 25.5,196.5C 24.8333,195.833 24.1667,195.167 23.5,194.5C 25.064,189.308 26.7306,184.141 28.5,179C 28.1667,178 27.8333,177 27.5,176C 29.3619,171.11 31.3619,166.276 33.5,161.5C 32.9747,160.808 32.3081,160.308 31.5,160C 34.5,154.333 37.5,148.667 40.5,143C 39.8333,142.667 39.1667,142.333 38.5,142C 42.3995,135.683 46.3995,129.517 50.5,123.5 Z"/></g>
<g><path style="opacity:1" fill="#56bc10" d="M 346.5,381.5 C 370.077,364.307 387.41,342.307 398.5,315.5C 419.808,317.489 441.474,318.156 463.5,317.5C 464.6,312.167 465.767,306.834 467,301.5C 468.864,300.036 471.031,299.036 473.5,298.5C 474.657,293.234 475.491,287.901 476,282.5C 477.356,281.62 478.856,281.286 480.5,281.5C 480.907,275.839 481.24,270.172 481.5,264.5C 482.833,264.5 484.167,264.5 485.5,264.5C 485.5,258.5 485.5,252.5 485.5,246.5C 486.5,246.5 487.5,246.5 488.5,246.5C 487.953,241.477 487.286,236.477 486.5,231.5C 487.325,230.614 488.325,230.281 489.5,230.5C 488.686,224.469 487.686,218.469 486.5,212.5C 487.675,212.719 488.675,212.386 489.5,211.5C 488.324,206.461 486.99,201.461 485.5,196.5C 486.167,195.833 486.833,195.167 487.5,194.5C 485.936,189.308 484.269,184.141 482.5,179C 482.833,178 483.167,177 483.5,176C 481.638,171.11 479.638,166.276 477.5,161.5C 478.025,160.808 478.692,160.308 479.5,160C 476.5,154.333 473.5,148.667 470.5,143C 471.167,142.667 471.833,142.333 472.5,142C 468.601,135.683 464.601,129.517 460.5,123.5C 459.402,122.603 459.402,121.77 460.5,121C 456.036,115.226 451.702,109.393 447.5,103.5C 447.369,102.624 447.702,101.957 448.5,101.5C 455.427,108.597 461.427,116.431 466.5,125C 465.692,125.308 465.025,125.808 464.5,126.5C 472.201,138.566 478.868,151.233 484.5,164.5C 483.689,165.216 483.022,166.05 482.5,167C 487.105,178.481 491.105,190.148 494.5,202C 493.552,202.483 492.552,202.649 491.5,202.5C 493.825,214.115 495.825,225.781 497.5,237.5C 496.271,238.281 494.938,238.781 493.5,239C 494.485,248.417 494.818,257.917 494.5,267.5C 493.5,267.5 492.5,267.5 491.5,267.5C 490.935,274.517 490.268,281.517 489.5,288.5C 487.876,288.36 486.71,289.027 486,290.5C 485.047,297.549 483.881,304.549 482.5,311.5C 480.549,311.227 479.049,311.893 478,313.5C 476.645,319.589 474.978,325.589 473,331.5C 470.853,332.113 468.686,332.779 466.5,333.5C 463.822,341.369 460.655,349.035 457,356.5C 453.541,357.133 450.041,357.8 446.5,358.5C 442.587,366.667 437.92,374.333 432.5,381.5C 403.669,382.83 375.003,382.83 346.5,381.5 Z"/></g>
<g><path style="opacity:1" fill="#56bc10" d="M 63.5,103.5 C 59.2977,109.393 54.9643,115.226 50.5,121C 51.5981,121.77 51.5981,122.603 50.5,123.5C 46.3995,129.517 42.3995,135.683 38.5,142C 39.1667,142.333 39.8333,142.667 40.5,143C 37.5,148.667 34.5,154.333 31.5,160C 32.3081,160.308 32.9747,160.808 33.5,161.5C 31.3619,166.276 29.3619,171.11 27.5,176C 27.8333,177 28.1667,178 28.5,179C 26.7306,184.141 25.064,189.308 23.5,194.5C 24.1667,195.167 24.8333,195.833 25.5,196.5C 24.0097,201.461 22.6764,206.461 21.5,211.5C 22.325,212.386 23.325,212.719 24.5,212.5C 23.314,218.469 22.314,224.469 21.5,230.5C 22.675,230.281 23.675,230.614 24.5,231.5C 23.7139,236.477 23.0473,241.477 22.5,246.5C 23.5,246.5 24.5,246.5 25.5,246.5C 25.5,252.5 25.5,258.5 25.5,264.5C 26.8333,264.5 28.1667,264.5 29.5,264.5C 29.7599,270.172 30.0932,275.839 30.5,281.5C 32.1439,281.286 33.6439,281.62 35,282.5C 35.5094,287.901 36.3427,293.234 37.5,298.5C 39.9694,299.036 42.136,300.036 44,301.5C 45.2331,306.834 46.3998,312.167 47.5,317.5C 70.1667,317.5 92.8333,317.5 115.5,317.5C 127.638,343.307 144.972,364.973 167.5,382.5C 137.826,382.833 108.159,382.5 78.5,381.5C 73.08,374.333 68.4133,366.667 64.5,358.5C 60.959,357.8 57.459,357.133 54,356.5C 50.3451,349.035 47.1784,341.369 44.5,333.5C 42.314,332.779 40.1474,332.113 38,331.5C 36.0221,325.589 34.3554,319.589 33,313.5C 31.951,311.893 30.451,311.227 28.5,311.5C 27.1193,304.549 25.9527,297.549 25,290.5C 24.2904,289.027 23.1238,288.36 21.5,288.5C 20.732,281.517 20.0653,274.517 19.5,267.5C 18.5,267.5 17.5,267.5 16.5,267.5C 16.1816,257.917 16.5149,248.417 17.5,239C 16.062,238.781 14.7287,238.281 13.5,237.5C 15.1754,225.781 17.1754,214.115 19.5,202.5C 18.448,202.649 17.448,202.483 16.5,202C 19.8953,190.148 23.8953,178.481 28.5,167C 27.9777,166.05 27.311,165.216 26.5,164.5C 32.1324,151.233 38.7991,138.566 46.5,126.5C 45.9747,125.808 45.3081,125.308 44.5,125C 49.5731,116.431 55.5731,108.597 62.5,101.5C 63.2975,101.957 63.6309,102.624 63.5,103.5 Z"/></g>
<g><path style="opacity:1" fill="#fefefe" d="M 283.5,102.5 C 328.54,111.416 363.373,135.083 388,173.5C 389.301,175.402 389.968,177.402 390,179.5C 371.49,189.422 352.824,199.089 334,208.5C 320.643,187.813 302.143,173.979 278.5,167C 234.145,158.85 200.479,174.017 177.5,212.5C 172.91,220.602 169.91,229.269 168.5,238.5C 166.621,246.27 166.121,254.27 167,262.5C 171.838,301.662 192.671,328.162 229.5,342C 273.933,352.434 308.933,338.934 334.5,301.5C 308.509,300.5 282.509,300.167 256.5,300.5C 256.5,285.5 256.5,270.5 256.5,255.5C 307.167,255.5 357.833,255.5 408.5,255.5C 406.843,275.785 403.51,295.785 398.5,315.5C 387.41,342.307 370.077,364.307 346.5,381.5C 342.862,383.99 339.195,386.49 335.5,389C 278.077,419.582 222.077,417.415 167.5,382.5C 144.972,364.973 127.638,343.307 115.5,317.5C 105.113,292.175 101.113,265.842 103.5,238.5C 104.678,230.453 106.178,222.453 108,214.5C 126.955,153.708 167.455,116.375 229.5,102.5C 247.494,99.8511 265.494,99.8511 283.5,102.5 Z"/></g>
<g><path style="opacity:1" fill="#64c517" d="M 283.5,102.5 C 265.494,99.8511 247.494,99.8511 229.5,102.5C 190.669,101.667 151.669,101.167 112.5,101C 121.315,92.5149 130.982,85.1816 141.5,79C 137.167,78.6667 132.833,78.3333 128.5,78C 142.102,69.0314 156.435,61.3648 171.5,55C 168.5,54.6667 165.5,54.3333 162.5,54C 224.5,28 286.5,28 348.5,54C 345.5,54.3333 342.5,54.6667 339.5,55C 354.565,61.3648 368.898,69.0314 382.5,78C 378.167,78.3333 373.833,78.6667 369.5,79C 380.018,85.1816 389.685,92.5149 398.5,101C 359.998,101.167 321.664,101.667 283.5,102.5 Z"/></g>
<g><path style="opacity:0.691" fill="#3c9809" d="M 1.5,223.5 C 1.5,225.833 1.5,228.167 1.5,230.5C -0.295631,250.064 0.371036,269.398 3.5,288.5C 5.7765,313.816 12.9432,337.483 25,359.5C 27.5447,367.346 30.5447,375.013 34,382.5C 78.1612,454.025 141.995,496.192 225.5,509C 327.738,516.282 408.572,478.782 468,396.5C 468.36,394.392 469.027,392.392 470,390.5C 478.205,381.759 483.538,371.426 486,359.5C 490.223,353.278 493.556,346.611 496,339.5C 498.599,329.038 501.599,318.705 505,308.5C 506.596,301.923 507.43,295.256 507.5,288.5C 508.328,283.643 509.162,278.643 510,273.5C 510.5,259.837 510.667,246.171 510.5,232.5C 510.833,232.5 511.167,232.5 511.5,232.5C 511.5,247.833 511.5,263.167 511.5,278.5C 501.902,358.893 464.235,422.393 398.5,469C 361.869,492.821 321.869,506.987 278.5,511.5C 263.167,511.5 247.833,511.5 232.5,511.5C 152.107,501.902 88.6066,464.235 42,398.5C 18.1794,361.869 4.01272,321.869 -0.5,278.5C -0.5,263.167 -0.5,247.833 -0.5,232.5C 0.166667,229.5 0.833333,226.5 1.5,223.5 Z"/></g>
<g><path style="opacity:1" fill="#46ae0b" d="M 3.5,288.5 C 4.11742,288.611 4.61742,288.944 5,289.5C 5.9042,297.211 7.07087,304.878 8.5,312.5C 14.208,326.055 19.708,339.722 25,353.5C 40.9241,389.428 63.7574,420.261 93.5,446C 97.0458,447.174 100.713,447.84 104.5,448C 135.938,473.213 171.605,489.547 211.5,497C 283.782,509.013 348.782,492.68 406.5,448C 410.287,447.84 413.954,447.174 417.5,446C 424.97,439.532 432.136,432.698 439,425.5C 473.572,385.69 496.405,340.023 507.5,288.5C 507.43,295.256 506.596,301.923 505,308.5C 501.599,318.705 498.599,329.038 496,339.5C 493.556,346.611 490.223,353.278 486,359.5C 483.538,371.426 478.205,381.759 470,390.5C 469.027,392.392 468.36,394.392 468,396.5C 408.572,478.782 327.738,516.282 225.5,509C 141.995,496.192 78.1612,454.025 34,382.5C 30.5447,375.013 27.5447,367.346 25,359.5C 12.9432,337.483 5.7765,313.816 3.5,288.5 Z"/></g>
</svg>
